<svg width="56" height="56" viewBox="0 0 56 56" fill="none" xmlns="http://www.w3.org/2000/svg">
<rect width="56" height="56" rx="12" fill="white"/>
<path d="M28 39.8864C25.5625 39.8864 23.4948 39.0374 21.7969 37.3395C20.099 35.6416 19.25 33.5739 19.25 31.1364C19.25 29.1781 19.8281 27.4229 20.9844 25.8708C22.1406 24.3187 23.6562 23.2718 25.5312 22.7301C25.1146 22.626 24.7083 22.4749 24.3125 22.277C23.9167 22.0791 23.5625 21.8239 23.25 21.5114C22.5625 20.8239 22.1198 20.0062 21.9219 19.0583C21.724 18.1104 21.6771 17.1468 21.7812 16.1676C22.7604 16.0635 23.724 16.1104 24.6719 16.3083C25.6198 16.5062 26.4375 16.9489 27.125 17.6364C27.6042 18.1156 27.9531 18.6572 28.1719 19.2614C28.3906 19.8656 28.5312 20.501 28.5938 21.1676C28.8646 20.5218 29.1927 19.9124 29.5781 19.3395C29.9635 18.7666 30.3958 18.2406 30.875 17.7614C31.1042 17.5322 31.3958 17.4176 31.75 17.4176C32.1042 17.4176 32.3958 17.5322 32.625 17.7614C32.8542 17.9906 32.9688 18.2822 32.9688 18.6364C32.9688 18.9906 32.8542 19.2822 32.625 19.5114C32.1667 19.9697 31.7604 20.4749 31.4062 21.027C31.0521 21.5791 30.7917 22.1676 30.625 22.7926C32.4583 23.376 33.9375 24.4333 35.0625 25.9645C36.1875 27.4958 36.75 29.2197 36.75 31.1364C36.75 33.5739 35.901 35.6416 34.2031 37.3395C32.5052 39.0374 30.4375 39.8864 28 39.8864ZM28 37.3864C29.7292 37.3864 31.2031 36.777 32.4219 35.5583C33.6406 34.3395 34.25 32.8656 34.25 31.1364C34.25 29.4072 33.6406 27.9333 32.4219 26.7145C31.2031 25.4958 29.7292 24.8864 28 24.8864C26.2708 24.8864 24.7969 25.4958 23.5781 26.7145C22.3594 27.9333 21.75 29.4072 21.75 31.1364C21.75 32.8656 22.3594 34.3395 23.5781 35.5583C24.7969 36.777 26.2708 37.3864 28 37.3864Z" fill="#5A4400"/>
</svg>
