<svg width="56" height="56" viewBox="0 0 56 56" fill="none" xmlns="http://www.w3.org/2000/svg">
<rect width="56" height="56" rx="12" fill="white"/>
<path d="M28 28C28.55 28 29.0208 27.8042 29.4125 27.4125C29.8042 27.0208 30 26.55 30 26C30 25.45 29.8042 24.9792 29.4125 24.5875C29.0208 24.1958 28.55 24 28 24C27.45 24 26.9792 24.1958 26.5875 24.5875C26.1958 24.9792 26 25.45 26 26C26 26.55 26.1958 27.0208 26.5875 27.4125C26.9792 27.8042 27.45 28 28 28ZM28 35.35C30.0333 33.4833 31.5417 31.7875 32.525 30.2625C33.5083 28.7375 34 27.3833 34 26.2C34 24.3833 33.4208 22.8958 32.2625 21.7375C31.1042 20.5792 29.6833 20 28 20C26.3167 20 24.8958 20.5792 23.7375 21.7375C22.5792 22.8958 22 24.3833 22 26.2C22 27.3833 22.4917 28.7375 23.475 30.2625C24.4583 31.7875 25.9667 33.4833 28 35.35ZM28 38C25.3167 35.7167 23.3125 33.5958 21.9875 31.6375C20.6625 29.6792 20 27.8667 20 26.2C20 23.7 20.8042 21.7083 22.4125 20.225C24.0208 18.7417 25.8833 18 28 18C30.1167 18 31.9792 18.7417 33.5875 20.225C35.1958 21.7083 36 23.7 36 26.2C36 27.8667 35.3375 29.6792 34.0125 31.6375C32.6875 33.5958 30.6833 35.7167 28 38Z" fill="black"/>
</svg>
