<svg width="56" height="56" viewBox="0 0 56 56" fill="none" xmlns="http://www.w3.org/2000/svg">
<rect width="56" height="56" rx="12" fill="white"/>
<path d="M31.75 39.25L24.25 36.625L18.4375 38.875C18.0208 39.0417 17.6354 38.9948 17.2812 38.7344C16.9271 38.474 16.75 38.125 16.75 37.6875V20.1875C16.75 19.9167 16.8281 19.6771 16.9844 19.4688C17.1406 19.2604 17.3542 19.1042 17.625 19L24.25 16.75L31.75 19.375L37.5625 17.125C37.9792 16.9583 38.3646 17.0052 38.7188 17.2656C39.0729 17.526 39.25 17.875 39.25 18.3125V35.8125C39.25 36.0833 39.1719 36.3229 39.0156 36.5312C38.8594 36.7396 38.6458 36.8958 38.375 37L31.75 39.25ZM30.5 36.1875V21.5625L25.5 19.8125V34.4375L30.5 36.1875ZM33 36.1875L36.75 34.9375V20.125L33 21.5625V36.1875ZM19.25 35.875L23 34.4375V19.8125L19.25 21.0625V35.875ZM33 21.5625V36.1875V21.5625ZM23 19.8125V34.4375V19.8125Z" fill="#0E5138"/>
</svg>
