<svg width="14" height="14" viewBox="0 0 14 14" fill="none" xmlns="http://www.w3.org/2000/svg">
<path d="M6.99698 4.99414V7.99414" stroke="#F40A0A" stroke-linecap="round" stroke-linejoin="round"/>
<path d="M6.99698 11.4941C7.27312 11.4941 7.49698 11.2703 7.49698 10.9941C7.49698 10.718 7.27312 10.4941 6.99698 10.4941C6.72084 10.4941 6.49698 10.718 6.49698 10.9941C6.49698 11.2703 6.72084 11.4941 6.99698 11.4941Z" stroke="#F40A0A" stroke-linecap="round" stroke-linejoin="round"/>
<path d="M7.88697 1.04404C7.80306 0.880238 7.67556 0.742773 7.51853 0.646782C7.3615 0.550792 7.18102 0.5 6.99697 0.5C6.81293 0.5 6.63245 0.550792 6.47542 0.646782C6.31839 0.742773 6.19089 0.880238 6.10697 1.04404L0.606974 12.044C0.530264 12.1963 0.493742 12.3656 0.500876 12.5359C0.508011 12.7062 0.558565 12.8719 0.647737 13.0172C0.736909 13.1624 0.86174 13.2825 1.01037 13.366C1.15901 13.4494 1.32651 13.4935 1.49697 13.494H12.497C12.6674 13.4935 12.8349 13.4494 12.9836 13.366C13.1322 13.2825 13.257 13.1624 13.3462 13.0172C13.4354 12.8719 13.4859 12.7062 13.4931 12.5359C13.5002 12.3656 13.4637 12.1963 13.387 12.044L7.88697 1.04404Z" stroke="#F40A0A" stroke-linecap="round" stroke-linejoin="round"/>
</svg>
