<svg width="10" height="14" viewBox="0 0 10 14" fill="none" xmlns="http://www.w3.org/2000/svg">
<path d="M9.50006 6L8.61006 12.62C8.58058 12.8639 8.46235 13.0884 8.27791 13.2507C8.09347 13.413 7.85574 13.5018 7.61006 13.5H2.38006C2.13438 13.5018 1.89665 13.413 1.71221 13.2507C1.52777 13.0884 1.40954 12.8639 1.38006 12.62L0.500061 6" stroke="#F40A0A" stroke-linecap="round" stroke-linejoin="round"/>
<path d="M8.73006 3.6799C8.66048 3.47291 8.52507 3.2944 8.3445 3.17161C8.16393 3.04882 7.94813 2.98851 7.73006 2.9999H2.22006C2.01042 2.99935 1.80591 3.06471 1.63543 3.18674C1.46496 3.30876 1.33715 3.48127 1.27006 3.6799L0.500061 5.9999H9.50006L8.73006 3.6799Z" stroke="#F40A0A" stroke-linecap="round" stroke-linejoin="round"/>
<path d="M6.50006 3V1.5C6.50006 1.23478 6.3947 0.98043 6.20717 0.792893C6.01963 0.605357 5.76528 0.5 5.50006 0.5H4.50006C4.23484 0.5 3.98049 0.605357 3.79295 0.792893C3.60542 0.98043 3.50006 1.23478 3.50006 1.5V3" stroke="#F40A0A" stroke-linecap="round" stroke-linejoin="round"/>
</svg>
