<svg width="15" height="10" viewBox="0 0 15 10" fill="none" xmlns="http://www.w3.org/2000/svg">
<path d="M8.63999 0.5C4.30999 0.5 0.519989 1.15 0.519989 4C0.598201 4.71971 0.957057 5.37955 1.51869 5.83635C2.08033 6.29315 2.79944 6.51005 3.51999 6.44C3.9578 6.43961 4.39177 6.35825 4.79999 6.2C4.92616 6.14494 5.06233 6.11652 5.19999 6.11652C5.33765 6.11652 5.47382 6.14494 5.59999 6.2C6.53121 6.71486 7.57596 6.98979 8.63999 7C11.34 7 13.52 5.54 13.52 3.75C13.52 1.96 11.34 0.5 8.63999 0.5Z" stroke="#F40A0A" stroke-linecap="round" stroke-linejoin="round"/>
<path d="M13.52 3.75V6.25C13.52 8.04 11.34 9.5 8.64 9.5C7.5752 9.51463 6.52353 9.26374 5.58 8.77C5.45383 8.71494 5.31766 8.68651 5.18 8.68651C5.04234 8.68651 4.90617 8.71494 4.78 8.77C4.37114 8.92483 3.93719 9.00281 3.5 9C2.77945 9.07005 2.06034 8.85314 1.4987 8.39635C0.937068 7.93955 0.578212 7.27971 0.5 6.56V4" stroke="#F40A0A" stroke-linecap="round" stroke-linejoin="round"/>
<path d="M4.01999 4C4.29613 4 4.51999 3.77614 4.51999 3.5C4.51999 3.22386 4.29613 3 4.01999 3C3.74385 3 3.51999 3.22386 3.51999 3.5C3.51999 3.77614 3.74385 4 4.01999 4Z" stroke="#F40A0A" stroke-linecap="round" stroke-linejoin="round"/>
</svg>
