<svg width="11" height="14" viewBox="0 0 11 14" fill="none" xmlns="http://www.w3.org/2000/svg">
<path d="M1.5 5.5H6.5C6.76522 5.5 7.01957 5.60536 7.20711 5.79289C7.39464 5.98043 7.5 6.23478 7.5 6.5V11.5C7.5 12.0304 7.28929 12.5391 6.91421 12.9142C6.53914 13.2893 6.03043 13.5 5.5 13.5H2.5C1.96957 13.5 1.46086 13.2893 1.08579 12.9142C0.710714 12.5391 0.5 12.0304 0.5 11.5V6.5C0.5 6.23478 0.605357 5.98043 0.792893 5.79289C0.98043 5.60536 1.23478 5.5 1.5 5.5V5.5Z" stroke="#F40A0A" stroke-linecap="round" stroke-linejoin="round"/>
<path d="M7.5 6.5H8C8.66304 6.5 9.29893 6.76339 9.76777 7.23223C10.2366 7.70107 10.5 8.33696 10.5 9C10.5 9.66304 10.2366 10.2989 9.76777 10.7678C9.29893 11.2366 8.66304 11.5 8 11.5H7.5" stroke="#F40A0A" stroke-linecap="round" stroke-linejoin="round"/>
<path d="M2.5 0.5V2.5" stroke="#F40A0A" stroke-linecap="round" stroke-linejoin="round"/>
<path d="M5.5 0.5V2.5" stroke="#F40A0A" stroke-linecap="round" stroke-linejoin="round"/>
</svg>
