<svg width="7" height="14" viewBox="0 0 7 14" fill="none" xmlns="http://www.w3.org/2000/svg">
<path d="M4.5 4V1C4.5 0.867392 4.44732 0.740215 4.35355 0.646447C4.25979 0.552678 4.13261 0.5 4 0.5H2.5C2.36739 0.5 2.24022 0.552678 2.14645 0.646447C2.05268 0.740215 2 0.867392 2 1V4C1.53844 4.3068 1.15994 4.72301 0.898227 5.21155C0.636511 5.70009 0.499706 6.24578 0.5 6.8V12.5C0.5 12.7652 0.605358 13.0196 0.792894 13.2071C0.98043 13.3946 1.23478 13.5 1.5 13.5H5C5.26522 13.5 5.51957 13.3946 5.70711 13.2071C5.89464 13.0196 6 12.7652 6 12.5V6.8C6.0003 6.24578 5.86349 5.70009 5.60177 5.21155C5.34006 4.72301 4.96156 4.3068 4.5 4Z" stroke="#F40A0A" stroke-linecap="round" stroke-linejoin="round"/>
<path d="M0.5 7.5H6" stroke="#F40A0A" stroke-linecap="round" stroke-linejoin="round"/>
<path d="M6 11H0.5" stroke="#F40A0A" stroke-linecap="round" stroke-linejoin="round"/>
</svg>
