<svg width="14" height="14" viewBox="0 0 14 14" fill="none" xmlns="http://www.w3.org/2000/svg">
<path d="M6.98 12C8.61655 11.9975 10.1921 11.3787 11.393 10.2668C12.5938 9.1549 13.3318 7.63152 13.46 6C13.4601 5.87079 13.4102 5.74655 13.3207 5.65333C13.2312 5.56012 13.1091 5.50517 12.98 5.5H0.98C0.850889 5.50517 0.728792 5.56012 0.639306 5.65333C0.549821 5.74655 0.499897 5.87079 0.5 6C0.628207 7.63152 1.36621 9.1549 2.56705 10.2668C3.76788 11.3787 5.34345 11.9975 6.98 12V12Z" stroke="#F40A0A" stroke-linecap="round" stroke-linejoin="round"/>
<path d="M4.03001 11.29L3.48001 13.5" stroke="#F40A0A" stroke-linecap="round" stroke-linejoin="round"/>
<path d="M9.92999 11.29L10.48 13.5" stroke="#F40A0A" stroke-linecap="round" stroke-linejoin="round"/>
<path d="M3.48001 3V2" stroke="#F40A0A" stroke-linecap="round" stroke-linejoin="round"/>
<path d="M10.48 3V2" stroke="#F40A0A" stroke-linecap="round" stroke-linejoin="round"/>
<path d="M6.98001 3V0.5" stroke="#F40A0A" stroke-linecap="round" stroke-linejoin="round"/>
</svg>
