<svg width="14" height="14" viewBox="0 0 14 14" fill="none" xmlns="http://www.w3.org/2000/svg">
<path d="M9.09 0.52L9 0.5L0.75 5.36C0.678195 5.39788 0.617426 5.45371 0.573613 5.52206C0.529801 5.59041 0.50444 5.66894 0.5 5.75V12.46C0.5 12.5926 0.552678 12.7198 0.646447 12.8136C0.740215 12.9073 0.867392 12.96 1 12.96H13C13.1326 12.96 13.2598 12.9073 13.3536 12.8136C13.4473 12.7198 13.5 12.5926 13.5 12.46V5.46C13.3461 4.28891 12.8431 3.1913 12.0565 2.31017C11.2699 1.42904 10.2362 0.805224 9.09 0.52V0.52Z" stroke="#F40A0A" stroke-linecap="round" stroke-linejoin="round"/>
<path d="M0.589996 5.5H13" stroke="#F40A0A" stroke-linecap="round" stroke-linejoin="round"/>
<path d="M0.5 10.17L0.58 10.1C0.765229 9.91102 0.986118 9.76068 1.22987 9.65769C1.47362 9.5547 1.73539 9.5011 2 9.5C2.53043 9.5 3.03914 9.71071 3.41421 10.0858C3.78929 10.4609 4 10.9696 4 11.5C3.99777 12.0296 3.78559 12.5366 3.41 12.91L3.33 13" stroke="#F40A0A" stroke-linecap="round" stroke-linejoin="round"/>
<path d="M9 10.5C9.82843 10.5 10.5 9.82843 10.5 9C10.5 8.17157 9.82843 7.5 9 7.5C8.17157 7.5 7.5 8.17157 7.5 9C7.5 9.82843 8.17157 10.5 9 10.5Z" stroke="#F40A0A" stroke-linecap="round" stroke-linejoin="round"/>
</svg>
