<svg width="13" height="14" viewBox="0 0 13 14" fill="none" xmlns="http://www.w3.org/2000/svg">
<path d="M8.4131 0.5V6.5L12.0031 11.07C12.178 11.2913 12.2869 11.5574 12.3174 11.8378C12.3479 12.1182 12.2987 12.4015 12.1755 12.6552C12.0523 12.9089 11.8601 13.1228 11.6209 13.2722C11.3816 13.4216 11.1051 13.5006 10.8231 13.5H2.0031C1.72105 13.5006 1.44455 13.4216 1.20534 13.2722C0.966122 13.1228 0.77388 12.9089 0.650676 12.6552C0.527472 12.4015 0.478298 12.1182 0.508796 11.8378C0.539294 11.5574 0.64823 11.2913 0.823101 11.07L4.4131 6.5V0.5" stroke="#F40A0A" stroke-linecap="round" stroke-linejoin="round"/>
<path d="M2.9131 0.5H9.9131" stroke="#F40A0A" stroke-linecap="round" stroke-linejoin="round"/>
</svg>
