<svg width="8" height="14" viewBox="0 0 8 14" fill="none" xmlns="http://www.w3.org/2000/svg">
<path d="M5 9.5V12C5 12.2652 4.89464 12.5196 4.70711 12.7071C4.51957 12.8946 4.26522 13 4 13C3.73478 13 3.48043 12.8946 3.29289 12.7071C3.10536 12.5196 3 12.2652 3 12V9.5" stroke="#F40A0A" stroke-linecap="round" stroke-linejoin="round"/>
<path d="M6.75 2.5C6.28587 2.5 5.84075 2.31563 5.51256 1.98744C5.18437 1.65925 5 1.21413 5 0.75C5.00239 0.559112 5.03617 0.369917 5.1 0.19C4.74532 0.0703301 4.37427 0.00623909 4 0C3.07174 0 2.1815 0.368749 1.52513 1.02513C0.868749 1.6815 0.5 2.57174 0.5 3.5V8.5C0.5 8.76522 0.605357 9.01957 0.792893 9.20711C0.98043 9.39464 1.23478 9.5 1.5 9.5H6.5C6.76522 9.5 7.01957 9.39464 7.20711 9.20711C7.39464 9.01957 7.5 8.76522 7.5 8.5V3.5C7.49376 3.12573 7.42967 2.75468 7.31 2.4C7.13008 2.46383 6.94089 2.49761 6.75 2.5V2.5Z" stroke="#F40A0A" stroke-linecap="round" stroke-linejoin="round"/>
</svg>
