<svg width="14" height="14" viewBox="0 0 14 14" fill="none" xmlns="http://www.w3.org/2000/svg">
<g clip-path="url(#clip0_3179_2374)">
<path d="M10.36 6.47998L7.49 13.18C7.44947 13.2793 7.38027 13.3644 7.29121 13.4242C7.20216 13.4841 7.0973 13.516 6.99 13.516C6.8827 13.516 6.77784 13.4841 6.68878 13.4242C6.59973 13.3644 6.53053 13.2793 6.49 13.18L3.64 6.47998" stroke="#F40A0A" stroke-linecap="round" stroke-linejoin="round"/>
<path d="M4.88 6.88012C6.05637 6.88012 7.01 5.92648 7.01 4.75012C7.01 3.57375 6.05637 2.62012 4.88 2.62012C3.70363 2.62012 2.75 3.57375 2.75 4.75012C2.75 5.92648 3.70363 6.88012 4.88 6.88012Z" stroke="#F40A0A" stroke-linecap="round" stroke-linejoin="round"/>
<path d="M4.88 2.63001C4.88 2.06775 5.10336 1.52852 5.50094 1.13094C5.89852 0.733366 6.43775 0.51001 7 0.51001C7.56226 0.51001 8.10149 0.733366 8.49907 1.13094C8.89665 1.52852 9.12 2.06775 9.12 2.63001" stroke="#F40A0A" stroke-linecap="round" stroke-linejoin="round"/>
<path d="M9.13 6.88012C10.3064 6.88012 11.26 5.92648 11.26 4.75012C11.26 3.57375 10.3064 2.62012 9.13 2.62012C7.95363 2.62012 7 3.57375 7 4.75012C7 5.92648 7.95363 6.88012 9.13 6.88012Z" stroke="#F40A0A" stroke-linecap="round" stroke-linejoin="round"/>
</g>
<defs>
<clipPath id="clip0_3179_2374">
<rect width="14" height="14" fill="white"/>
</clipPath>
</defs>
</svg>
